<mxfile host="Electron" agent="Mozilla/5.0 (Windows NT 10.0; Win64; x64) AppleWebKit/537.36 (KHTML, like Gecko) draw.io/26.0.16 Chrome/132.0.6834.196 Electron/34.2.0 Safari/537.36" version="26.0.16">
  <diagram name="Page-1" id="HTXm7dcBumKloaUW3wz-">
    <mxGraphModel dx="1120" dy="595" grid="1" gridSize="10" guides="1" tooltips="1" connect="1" arrows="1" fold="1" page="1" pageScale="1" pageWidth="1200" pageHeight="1600" math="0" shadow="0">
      <root>
        <mxCell id="0" />
        <mxCell id="1" parent="0" />
        <mxCell id="XgFd2i0XiVzIHJBlJ6Pv-3" value="" style="rounded=0;whiteSpace=wrap;html=1;dashed=1;fillColor=none;" parent="1" vertex="1">
          <mxGeometry x="10" y="80" width="150" height="510" as="geometry" />
        </mxCell>
        <mxCell id="XgFd2i0XiVzIHJBlJ6Pv-4" value="&lt;b&gt;&lt;font style=&quot;font-size: 15px;&quot;&gt;Sources&lt;/font&gt;&lt;/b&gt;" style="text;html=1;align=center;verticalAlign=middle;whiteSpace=wrap;rounded=0;fillColor=default;" parent="1" vertex="1">
          <mxGeometry x="60" y="60" width="60" height="30" as="geometry" />
        </mxCell>
        <mxCell id="XgFd2i0XiVzIHJBlJ6Pv-5" value="" style="rounded=0;whiteSpace=wrap;html=1;dashed=1;fillColor=none;" parent="1" vertex="1">
          <mxGeometry x="180" y="80" width="790" height="510" as="geometry" />
        </mxCell>
        <mxCell id="XgFd2i0XiVzIHJBlJ6Pv-6" value="" style="rounded=0;whiteSpace=wrap;html=1;dashed=1;fillColor=none;" parent="1" vertex="1">
          <mxGeometry x="990" y="80" width="140" height="510" as="geometry" />
        </mxCell>
        <mxCell id="XgFd2i0XiVzIHJBlJ6Pv-9" value="&lt;b&gt;&lt;font style=&quot;font-size: 15px;&quot;&gt;Data Warehouse&lt;/font&gt;&lt;/b&gt;" style="text;html=1;align=center;verticalAlign=middle;whiteSpace=wrap;rounded=0;fillColor=default;" parent="1" vertex="1">
          <mxGeometry x="460" y="60" width="120" height="30" as="geometry" />
        </mxCell>
        <mxCell id="XgFd2i0XiVzIHJBlJ6Pv-12" value="&lt;b&gt;&lt;font style=&quot;font-size: 15px;&quot;&gt;Consume&lt;/font&gt;&lt;/b&gt;" style="text;html=1;align=center;verticalAlign=middle;whiteSpace=wrap;rounded=0;fillColor=default;" parent="1" vertex="1">
          <mxGeometry x="1020" y="60" width="60" height="30" as="geometry" />
        </mxCell>
        <mxCell id="XgFd2i0XiVzIHJBlJ6Pv-14" value="&lt;font style=&quot;font-size: 15px;&quot;&gt;Bronze Layer&lt;/font&gt;" style="rounded=0;whiteSpace=wrap;html=1;fillColor=#ffe6cc;strokeColor=#d79b00;" parent="1" vertex="1">
          <mxGeometry x="250" y="100" width="120" height="30" as="geometry" />
        </mxCell>
        <mxCell id="XgFd2i0XiVzIHJBlJ6Pv-15" value="" style="rounded=0;whiteSpace=wrap;html=1;dashed=1;fillColor=none;strokeColor=#d79b00;" parent="1" vertex="1">
          <mxGeometry x="211" y="150" width="220" height="410" as="geometry" />
        </mxCell>
        <mxCell id="XgFd2i0XiVzIHJBlJ6Pv-16" value="&lt;font style=&quot;font-size: 15px;&quot;&gt;Silver Layer&lt;/font&gt;" style="rounded=0;whiteSpace=wrap;html=1;fillColor=#f5f5f5;strokeColor=#666666;fontColor=#333333;" parent="1" vertex="1">
          <mxGeometry x="505" y="100" width="120" height="30" as="geometry" />
        </mxCell>
        <mxCell id="XgFd2i0XiVzIHJBlJ6Pv-17" value="" style="rounded=0;whiteSpace=wrap;html=1;dashed=1;fillColor=none;fontColor=#333333;strokeColor=#666666;" parent="1" vertex="1">
          <mxGeometry x="450" y="150" width="230" height="410" as="geometry" />
        </mxCell>
        <mxCell id="XgFd2i0XiVzIHJBlJ6Pv-18" value="&lt;font style=&quot;font-size: 15px;&quot;&gt;Gold Layer&lt;/font&gt;" style="rounded=0;whiteSpace=wrap;html=1;fillColor=#e3c800;strokeColor=#B09500;fontColor=#000000;" parent="1" vertex="1">
          <mxGeometry x="755" y="100" width="120" height="30" as="geometry" />
        </mxCell>
        <mxCell id="XgFd2i0XiVzIHJBlJ6Pv-19" value="" style="rounded=0;whiteSpace=wrap;html=1;dashed=1;fillColor=none;strokeColor=#FFD966;fontColor=#000000;" parent="1" vertex="1">
          <mxGeometry x="700" y="150" width="230" height="410" as="geometry" />
        </mxCell>
        <mxCell id="XgFd2i0XiVzIHJBlJ6Pv-20" value="&lt;b&gt;CRM&lt;/b&gt;" style="image;aspect=fixed;html=1;points=[];align=center;fontSize=12;image=img/lib/azure2/general/Folder_Blank.svg;" parent="1" vertex="1">
          <mxGeometry x="60" y="120" width="49" height="39.77" as="geometry" />
        </mxCell>
        <mxCell id="XgFd2i0XiVzIHJBlJ6Pv-21" value="" style="image;aspect=fixed;html=1;points=[];align=center;fontSize=12;image=img/lib/azure2/general/File.svg;" parent="1" vertex="1">
          <mxGeometry x="94" y="130" width="26" height="32.04" as="geometry" />
        </mxCell>
        <mxCell id="XgFd2i0XiVzIHJBlJ6Pv-22" value="&lt;b&gt;ERP&lt;/b&gt;" style="image;aspect=fixed;html=1;points=[];align=center;fontSize=12;image=img/lib/azure2/general/Folder_Blank.svg;" parent="1" vertex="1">
          <mxGeometry x="59" y="190" width="50" height="40.58" as="geometry" />
        </mxCell>
        <mxCell id="XgFd2i0XiVzIHJBlJ6Pv-27" value="" style="endArrow=none;html=1;rounded=0;" parent="1" edge="1">
          <mxGeometry width="50" height="50" relative="1" as="geometry">
            <mxPoint x="19" y="260" as="sourcePoint" />
            <mxPoint x="149" y="260" as="targetPoint" />
          </mxGeometry>
        </mxCell>
        <mxCell id="XgFd2i0XiVzIHJBlJ6Pv-28" value="&lt;font&gt;&lt;b style=&quot;&quot;&gt;Object Type&lt;/b&gt;: CSV Files&lt;/font&gt;&lt;div&gt;&lt;br&gt;&lt;/div&gt;" style="text;html=1;align=left;verticalAlign=middle;whiteSpace=wrap;rounded=0;" parent="1" vertex="1">
          <mxGeometry x="19" y="290" width="130" height="30" as="geometry" />
        </mxCell>
        <mxCell id="XgFd2i0XiVzIHJBlJ6Pv-29" value="&lt;div&gt;&lt;b&gt;Interface&lt;/b&gt;: Files in Folders&lt;/div&gt;&lt;div&gt;&lt;br style=&quot;text-align: left;&quot;&gt;&lt;/div&gt;" style="text;html=1;align=center;verticalAlign=middle;whiteSpace=wrap;rounded=0;" parent="1" vertex="1">
          <mxGeometry y="320" width="170" height="30" as="geometry" />
        </mxCell>
        <mxCell id="83uS1nxvaxxdhbi7Mst6-2" value="" style="html=1;verticalLabelPosition=bottom;align=center;labelBackgroundColor=#ffffff;verticalAlign=top;strokeWidth=2;strokeColor=#d79b00;shadow=0;dashed=0;shape=mxgraph.ios7.icons.data;fillColor=#ffe6cc;" parent="1" vertex="1">
          <mxGeometry x="300" y="159.77" width="42" height="50.23" as="geometry" />
        </mxCell>
        <mxCell id="83uS1nxvaxxdhbi7Mst6-3" value="" style="html=1;verticalLabelPosition=bottom;align=center;labelBackgroundColor=#ffffff;verticalAlign=top;strokeWidth=2;strokeColor=#666666;shadow=0;dashed=0;shape=mxgraph.ios7.icons.data;fillColor=#f5f5f5;fontColor=#333333;" parent="1" vertex="1">
          <mxGeometry x="554" y="159.77" width="42" height="50.23" as="geometry" />
        </mxCell>
        <mxCell id="83uS1nxvaxxdhbi7Mst6-4" value="" style="html=1;verticalLabelPosition=bottom;align=center;labelBackgroundColor=#ffffff;verticalAlign=top;strokeWidth=2;strokeColor=#B09500;shadow=0;dashed=0;shape=mxgraph.ios7.icons.data;fillColor=#e3c800;fontColor=#000000;" parent="1" vertex="1">
          <mxGeometry x="801" y="159.77" width="42" height="50.23" as="geometry" />
        </mxCell>
        <mxCell id="83uS1nxvaxxdhbi7Mst6-6" value="" style="shape=singleArrow;whiteSpace=wrap;html=1;fillColor=#1ba1e2;strokeColor=#006EAF;fontColor=#ffffff;" parent="1" vertex="1">
          <mxGeometry x="680" y="310" width="40" height="20" as="geometry" />
        </mxCell>
        <mxCell id="83uS1nxvaxxdhbi7Mst6-7" value="" style="shape=singleArrow;whiteSpace=wrap;html=1;fillColor=#1ba1e2;strokeColor=#006EAF;fontColor=#ffffff;" parent="1" vertex="1">
          <mxGeometry x="160" y="310" width="40" height="20" as="geometry" />
        </mxCell>
        <mxCell id="83uS1nxvaxxdhbi7Mst6-8" value="" style="shape=singleArrow;whiteSpace=wrap;html=1;fillColor=#1ba1e2;strokeColor=#006EAF;fontColor=#ffffff;" parent="1" vertex="1">
          <mxGeometry x="420" y="310" width="40" height="20" as="geometry" />
        </mxCell>
        <mxCell id="83uS1nxvaxxdhbi7Mst6-12" value="&lt;font style=&quot;font-size: 14px;&quot;&gt;Raw Data&lt;/font&gt;" style="text;html=1;align=center;verticalAlign=middle;whiteSpace=wrap;rounded=0;" parent="1" vertex="1">
          <mxGeometry x="281" y="210" width="80" height="30" as="geometry" />
        </mxCell>
        <mxCell id="83uS1nxvaxxdhbi7Mst6-13" value="&lt;font style=&quot;font-size: 14px;&quot;&gt;Cleaned, Standard Data&lt;/font&gt;" style="text;html=1;align=center;verticalAlign=middle;whiteSpace=wrap;rounded=0;" parent="1" vertex="1">
          <mxGeometry x="535" y="200" width="80" height="70" as="geometry" />
        </mxCell>
        <mxCell id="83uS1nxvaxxdhbi7Mst6-14" value="&lt;font style=&quot;font-size: 14px;&quot;&gt;Business Ready Data&lt;/font&gt;" style="text;html=1;align=center;verticalAlign=middle;whiteSpace=wrap;rounded=0;" parent="1" vertex="1">
          <mxGeometry x="782" y="200" width="80" height="70" as="geometry" />
        </mxCell>
        <mxCell id="83uS1nxvaxxdhbi7Mst6-23" value="" style="endArrow=none;html=1;rounded=0;" parent="1" edge="1">
          <mxGeometry width="50" height="50" relative="1" as="geometry">
            <mxPoint x="260" y="240" as="sourcePoint" />
            <mxPoint x="390" y="240" as="targetPoint" />
          </mxGeometry>
        </mxCell>
        <mxCell id="83uS1nxvaxxdhbi7Mst6-24" value="" style="endArrow=none;html=1;rounded=0;" parent="1" edge="1">
          <mxGeometry width="50" height="50" relative="1" as="geometry">
            <mxPoint x="505" y="260" as="sourcePoint" />
            <mxPoint x="635" y="260" as="targetPoint" />
          </mxGeometry>
        </mxCell>
        <mxCell id="83uS1nxvaxxdhbi7Mst6-25" value="" style="endArrow=none;html=1;rounded=0;" parent="1" edge="1">
          <mxGeometry width="50" height="50" relative="1" as="geometry">
            <mxPoint x="757" y="260" as="sourcePoint" />
            <mxPoint x="887" y="260" as="targetPoint" />
          </mxGeometry>
        </mxCell>
        <mxCell id="83uS1nxvaxxdhbi7Mst6-26" value="&lt;font&gt;&lt;b style=&quot;&quot;&gt;Object Type&lt;/b&gt;: Tables&lt;/font&gt;&lt;div&gt;&lt;b&gt;Load:&lt;/b&gt;&lt;/div&gt;&lt;div&gt;&lt;ul&gt;&lt;li&gt;Batch Processing&lt;/li&gt;&lt;li&gt;Full Load&lt;/li&gt;&lt;li&gt;&lt;span style=&quot;background-color: transparent; color: light-dark(rgb(0, 0, 0), rgb(255, 255, 255));&quot;&gt;Truncate &amp;amp; Insert&lt;/span&gt;&lt;/li&gt;&lt;/ul&gt;&lt;b&gt;No Transformations&lt;span style=&quot;white-space: pre;&quot;&gt;&#x9;&lt;/span&gt;&lt;/b&gt;&lt;/div&gt;&lt;div&gt;&lt;b&gt;Data Model:&amp;nbsp;&lt;/b&gt;&amp;nbsp;None&amp;nbsp;&lt;br&gt;&lt;div&gt;&lt;br&gt;&lt;/div&gt;&lt;/div&gt;" style="text;html=1;align=left;verticalAlign=middle;whiteSpace=wrap;rounded=0;" parent="1" vertex="1">
          <mxGeometry x="236" y="230.57999999999998" width="170" height="239" as="geometry" />
        </mxCell>
        <mxCell id="83uS1nxvaxxdhbi7Mst6-27" value="&lt;font&gt;&lt;b style=&quot;&quot;&gt;Object Type&lt;/b&gt;: Tables&lt;/font&gt;&lt;div&gt;&lt;b&gt;Load:&lt;/b&gt;&lt;/div&gt;&lt;div&gt;&lt;ul&gt;&lt;li&gt;Batch Processing&lt;/li&gt;&lt;li&gt;Full Load&lt;/li&gt;&lt;li&gt;&lt;span style=&quot;background-color: transparent; color: light-dark(rgb(0, 0, 0), rgb(255, 255, 255));&quot;&gt;Truncate &amp;amp; Insert&lt;/span&gt;&lt;/li&gt;&lt;/ul&gt;&lt;b&gt;Transformations:&lt;/b&gt;&lt;/div&gt;&lt;div&gt;&lt;ul&gt;&lt;li&gt;Data Cleansing&lt;/li&gt;&lt;li&gt;Data Standardization&lt;/li&gt;&lt;li&gt;Data Normalization&lt;/li&gt;&lt;li&gt;Derived Columns&lt;/li&gt;&lt;li&gt;Data Enrichment&lt;span style=&quot;font-weight: bold; white-space: pre;&quot;&gt;&#x9;&lt;/span&gt;&lt;/li&gt;&lt;/ul&gt;&lt;/div&gt;&lt;div&gt;&lt;b&gt;Data Model:&amp;nbsp;&lt;/b&gt;&amp;nbsp;None&amp;nbsp;&lt;br&gt;&lt;div&gt;&lt;br&gt;&lt;/div&gt;&lt;/div&gt;" style="text;html=1;align=left;verticalAlign=middle;whiteSpace=wrap;rounded=0;" parent="1" vertex="1">
          <mxGeometry x="480" y="260" width="170" height="280" as="geometry" />
        </mxCell>
        <mxCell id="83uS1nxvaxxdhbi7Mst6-28" value="&lt;font&gt;&lt;b style=&quot;&quot;&gt;Object Type&lt;/b&gt;: Views&lt;/font&gt;&lt;div&gt;&lt;b&gt;Load: No&lt;/b&gt;&lt;/div&gt;&lt;div&gt;&lt;b&gt;&lt;br&gt;&lt;/b&gt;&lt;/div&gt;&lt;div&gt;&lt;b&gt;Transformations:&lt;/b&gt;&lt;/div&gt;&lt;div&gt;&lt;ul&gt;&lt;li&gt;Data Aggregations&lt;/li&gt;&lt;li&gt;Data Integrations&lt;/li&gt;&lt;li&gt;Business Logic&lt;span style=&quot;font-weight: bold; white-space: pre;&quot;&gt;&#x9;&lt;/span&gt;&lt;/li&gt;&lt;/ul&gt;&lt;/div&gt;&lt;div&gt;&lt;b&gt;Data Model:&amp;nbsp;&lt;/b&gt;&amp;nbsp;&lt;/div&gt;&lt;div&gt;&lt;ul&gt;&lt;li&gt;Star Schema&lt;/li&gt;&lt;li&gt;Flat Tables&lt;/li&gt;&lt;li&gt;Aggregated Tables&lt;/li&gt;&lt;/ul&gt;&lt;/div&gt;&lt;div&gt;&lt;br&gt;&lt;div&gt;&lt;br&gt;&lt;/div&gt;&lt;/div&gt;" style="text;html=1;align=left;verticalAlign=middle;whiteSpace=wrap;rounded=0;" parent="1" vertex="1">
          <mxGeometry x="737" y="260" width="170" height="280" as="geometry" />
        </mxCell>
        <mxCell id="83uS1nxvaxxdhbi7Mst6-29" value="" style="image;aspect=fixed;html=1;points=[];align=center;fontSize=12;image=img/lib/azure2/analytics/Power_BI_Embedded.svg;" parent="1" vertex="1">
          <mxGeometry x="1034.5" y="100" width="51" height="68" as="geometry" />
        </mxCell>
        <mxCell id="83uS1nxvaxxdhbi7Mst6-34" value="" style="sketch=0;pointerEvents=1;shadow=0;dashed=0;html=1;strokeColor=#006EAF;labelPosition=center;verticalLabelPosition=bottom;verticalAlign=top;align=center;fillColor=#1ba1e2;shape=mxgraph.mscae.oms.log_search;fontColor=#ffffff;" parent="1" vertex="1">
          <mxGeometry x="1020" y="240" width="70" height="70" as="geometry" />
        </mxCell>
        <mxCell id="83uS1nxvaxxdhbi7Mst6-35" value="" style="sketch=0;points=[[0,0,0],[0.25,0,0],[0.5,0,0],[0.75,0,0],[1,0,0],[0,1,0],[0.25,1,0],[0.5,1,0],[0.75,1,0],[1,1,0],[0,0.25,0],[0,0.5,0],[0,0.75,0],[1,0.25,0],[1,0.5,0],[1,0.75,0]];outlineConnect=0;fontColor=#232F3E;fillColor=#01A88D;strokeColor=#ffffff;dashed=0;verticalLabelPosition=bottom;verticalAlign=top;align=center;html=1;fontSize=12;fontStyle=0;aspect=fixed;shape=mxgraph.aws4.resourceIcon;resIcon=mxgraph.aws4.bedrock;" parent="1" vertex="1">
          <mxGeometry x="1021" y="370" width="78" height="78" as="geometry" />
        </mxCell>
        <mxCell id="83uS1nxvaxxdhbi7Mst6-36" value="&lt;font style=&quot;font-size: 14px;&quot;&gt;Reporting &amp;amp; BI&lt;/font&gt;" style="text;html=1;align=center;verticalAlign=middle;whiteSpace=wrap;rounded=0;" parent="1" vertex="1">
          <mxGeometry x="1015" y="170" width="80" height="50" as="geometry" />
        </mxCell>
        <mxCell id="83uS1nxvaxxdhbi7Mst6-37" value="&lt;font style=&quot;font-size: 14px;&quot;&gt;Ad-Hoc Sql Queries&lt;/font&gt;&lt;span style=&quot;color: rgba(0, 0, 0, 0); font-family: monospace; font-size: 0px; text-align: start; text-wrap-mode: nowrap;&quot;&gt;%3CmxGraphModel%3E%3Croot%3E%3CmxCell%20id%3D%220%22%2F%3E%3CmxCell%20id%3D%221%22%20parent%3D%220%22%2F%3E%3CmxCell%20id%3D%222%22%20value%3D%22%26lt%3Bfont%20style%3D%26quot%3Bfont-size%3A%2014px%3B%26quot%3B%26gt%3BReporting%20%26amp%3Bamp%3B%20BI%26lt%3B%2Ffont%26gt%3B%22%20style%3D%22text%3Bhtml%3D1%3Balign%3Dcenter%3BverticalAlign%3Dmiddle%3BwhiteSpace%3Dwrap%3Brounded%3D0%3B%22%20vertex%3D%221%22%20parent%3D%221%22%3E%3CmxGeometry%20x%3D%221015%22%20y%3D%22170%22%20width%3D%2280%22%20height%3D%2250%22%20as%3D%22geometry%22%2F%3E%3C%2FmxCell%3E%3C%2Froot%3E%3C%2FmxGraphModel%3E&lt;/span&gt;&lt;span style=&quot;color: rgba(0, 0, 0, 0); font-family: monospace; font-size: 0px; text-align: start; text-wrap-mode: nowrap;&quot;&gt;%3CmxGraphModel%3E%3Croot%3E%3CmxCell%20id%3D%220%22%2F%3E%3CmxCell%20id%3D%221%22%20parent%3D%220%22%2F%3E%3CmxCell%20id%3D%222%22%20value%3D%22%26lt%3Bfont%20style%3D%26quot%3Bfont-size%3A%2014px%3B%26quot%3B%26gt%3BReporting%20%26amp%3Bamp%3B%20BI%26lt%3B%2Ffont%26gt%3B%22%20style%3D%22text%3Bhtml%3D1%3Balign%3Dcenter%3BverticalAlign%3Dmiddle%3BwhiteSpace%3Dwrap%3Brounded%3D0%3B%22%20vertex%3D%221%22%20parent%3D%221%22%3E%3CmxGeometry%20x%3D%221015%22%20y%3D%22170%22%20width%3D%2280%22%20height%3D%2250%22%20as%3D%22geometry%22%2F%3E%3C%2FmxCell%3E%3C%2Froot%3E%3C%2FmxGraphModel%3E&lt;/span&gt;" style="text;html=1;align=center;verticalAlign=middle;whiteSpace=wrap;rounded=0;" parent="1" vertex="1">
          <mxGeometry x="1021" y="310" width="80" height="50" as="geometry" />
        </mxCell>
        <mxCell id="83uS1nxvaxxdhbi7Mst6-38" value="&lt;font style=&quot;font-size: 14px;&quot;&gt;Machine Learning&lt;/font&gt;" style="text;html=1;align=center;verticalAlign=middle;whiteSpace=wrap;rounded=0;" parent="1" vertex="1">
          <mxGeometry x="1019" y="460" width="80" height="50" as="geometry" />
        </mxCell>
        <mxCell id="6s6etoWlDaPpcb62J0Tc-1" value="" style="shape=singleArrow;whiteSpace=wrap;html=1;fillColor=#1ba1e2;strokeColor=#006EAF;fontColor=#ffffff;" vertex="1" parent="1">
          <mxGeometry x="970" y="310" width="40" height="20" as="geometry" />
        </mxCell>
      </root>
    </mxGraphModel>
  </diagram>
</mxfile>
